<?xml version="1.0" encoding="UTF-8"?>
<svg version="1.1" xmlns="http://www.w3.org/2000/svg" width="667" height="685">
<path d="M0 0 C4.35318563 0.00685818 8.70633674 -0.00372386 13.05951524 -0.01193976 C21.56239558 -0.02520791 30.06519601 -0.02243044 38.56807935 -0.01370184 C45.48489882 -0.00689826 52.40169606 -0.00602007 59.31851792 -0.00927329 C60.30681257 -0.00973299 61.29510721 -0.01019269 62.31335017 -0.01066632 C64.32169514 -0.01162559 66.33004009 -0.01259824 68.33838505 -0.01358409 C87.12530791 -0.02211772 105.91218671 -0.01233579 124.69910234 0.00381701 C140.78320551 0.01721833 156.86724369 0.01488967 172.95134568 0.00106072 C191.67576326 -0.01503103 210.40014231 -0.02129393 229.12456584 -0.01210248 C231.1250991 -0.01114694 233.12563236 -0.01020383 235.12616563 -0.00927329 C236.60222156 -0.00857905 236.60222156 -0.00857905 238.10809681 -0.00787079 C245.00836548 -0.00529166 251.90860951 -0.00962851 258.80887437 -0.01671195 C267.2297878 -0.02516724 275.65061744 -0.02276278 284.0715214 -0.00686972 C288.35951832 0.00095918 292.64737607 0.00419774 296.93537164 -0.00581717 C329.96857578 -0.07661028 329.96857578 -0.07661028 345.72234178 3.39217401 C347.30047528 3.73927391 347.30047528 3.73927391 348.91049027 4.09338593 C351.33597132 4.65856218 353.71076217 5.30655755 356.09734178 6.01717401 C356.95617967 6.26950799 357.81501756 6.52184197 358.69988084 6.78182244 C389.91123853 16.32335346 420.14502569 34.71729552 440.72234178 60.39217401 C441.45452928 61.27518182 442.18671678 62.15818963 442.94109178 63.06795526 C454.15825944 77.03616879 463.38760461 92.62159815 469.72234178 109.39217401 C469.98740525 110.08987908 470.25246873 110.78758416 470.52556443 111.50643182 C476.33752093 127.11008114 480.83535204 144.35830758 480.85376954 161.0881846 C480.85761069 162.40364479 480.86145183 163.71910498 480.86540937 165.0744276 C480.86462926 166.52244518 480.86375049 167.9704627 480.86278367 169.41848016 C480.86536937 170.96603087 480.8683831 172.51358092 480.87178707 174.06113005 C480.87983675 178.30702963 480.88164552 182.55291228 480.88238454 186.79881859 C480.88423873 191.38124678 480.89178808 195.96366627 480.89851975 200.54608941 C480.91209091 210.56522494 480.91812639 220.58435646 480.92253041 230.60349965 C480.92529587 236.86536708 480.92953387 243.12723297 480.93403459 249.38909936 C480.94622751 266.74164888 480.95652558 284.09419717 480.95990968 301.44675088 C480.96012924 302.55701479 480.96034881 303.66727871 480.96057503 304.81118698 C480.96079331 305.92405195 480.96101158 307.03691691 480.96123648 308.18350506 C480.96167994 310.43844549 480.9621265 312.69338592 480.96257615 314.94832635 C480.96279758 316.06684571 480.96301901 317.18536507 480.96324715 318.33777896 C480.96719071 336.4404907 480.98463114 354.54316209 481.00793567 372.64585826 C481.03169372 391.25182739 481.04411362 409.85777631 481.0452776 428.46376085 C481.04619205 438.90199521 481.05188606 449.34017702 481.07009721 459.77839684 C481.08555864 468.67170102 481.09058334 477.56493643 481.08235911 486.45825151 C481.07847339 490.989202 481.07927937 495.52001427 481.09341645 500.05094743 C481.19604051 534.93137624 481.19604051 534.93137624 477.72234178 550.39217401 C477.49090093 551.44188756 477.25946008 552.49160111 477.02100587 553.57312417 C476.45687825 556.00152498 475.80869639 558.37811534 475.09734178 560.76717401 C474.84500779 561.6260119 474.59267381 562.48484979 474.33269334 563.36971307 C466.77921952 588.07792528 453.99754009 612.79013602 435.23845506 630.87606072 C433.5684943 632.48246892 433.5684943 632.48246892 431.78484178 634.89217401 C407.06647279 664.85383338 364.13425412 680.58149542 326.72234178 685.39217401 C324.5829475 685.47958551 322.44138275 685.52284587 320.30020642 685.52639508 C319.04581405 685.53085293 317.79142168 685.53531077 316.49901742 685.5399037 C315.11988118 685.53981442 313.74074495 685.53962461 312.36160874 685.53934503 C310.88631749 685.54264753 309.41102713 685.54637391 307.93573791 685.55048651 C303.8894589 685.56047138 299.84319473 685.56421765 295.79690516 685.56687582 C291.42914375 685.57078953 287.06139396 685.58036734 282.69363999 685.58908868 C272.14685959 685.60882668 261.60007827 685.61891754 251.05328402 685.62781647 C246.07863075 685.63220517 241.10397854 685.6375706 236.12932611 685.64280534 C219.57714489 685.65981766 203.02496431 685.67430862 186.4727757 685.68155408 C182.17990644 685.68346378 177.88703719 685.68538414 173.59416795 685.68734002 C172.52727597 685.68782376 171.46038399 685.6883075 170.36116195 685.6888059 C153.10434394 685.69709417 135.84759552 685.72241072 118.59080785 685.7549207 C100.84702391 685.78807362 83.10327523 685.8060104 65.35946018 685.80919832 C55.40792236 685.81135619 45.45648591 685.81999803 35.50497842 685.84565949 C27.02383686 685.86747955 18.5428213 685.87536192 10.06165486 685.86569271 C5.74293893 685.86118002 1.42448231 685.86285477 -2.89419723 685.88245416 C-55.43626192 686.1074062 -100.74579991 671.33007997 -138.68537307 633.97615838 C-171.42864501 601.4035812 -186.60235897 556.24244217 -186.81287456 510.82032037 C-186.82302727 506.61481338 -186.8130361 502.40947098 -186.8005569 498.20397925 C-186.7913978 493.6258286 -186.80552918 489.04773574 -186.81647658 484.4695971 C-186.83415205 475.53095578 -186.83047117 466.59244971 -186.81882602 457.65380335 C-186.8097484 450.38143224 -186.80858629 443.10909873 -186.81292129 435.83672357 C-186.81353422 434.7969697 -186.81414715 433.75721583 -186.81477866 432.68595427 C-186.81605771 430.5729281 -186.81735457 428.45990194 -186.81866902 426.34687579 C-186.83004268 406.58840589 -186.81701177 386.83001054 -186.79546756 367.07155287 C-186.77759952 350.16178773 -186.78070454 333.25213248 -186.7991426 316.34236932 C-186.82060634 296.64883804 -186.82894434 276.95537191 -186.81669354 257.26183057 C-186.81541951 255.1570952 -186.81416202 253.05235983 -186.81292129 250.94762444 C-186.81230418 249.91237616 -186.81168708 248.87712788 -186.81105128 247.81050843 C-186.80761485 240.55694233 -186.81338965 233.30341796 -186.8228395 226.04985833 C-186.83412227 217.19576398 -186.83088869 208.34181126 -186.80971652 199.48773289 C-186.79928984 194.98058232 -186.7949388 190.47366684 -186.80831313 185.96651864 C-186.85789733 167.74745647 -186.64677144 150.20684514 -182.27765822 132.39217401 C-181.94222955 130.95206704 -181.60727182 129.51185029 -181.27284408 128.07151055 C-174.61619103 100.40382788 -159.316423 74.45219626 -140.21515822 53.57967401 C-139.74489211 53.06461297 -139.274626 52.54955194 -138.7901094 52.01888299 C-117.9981584 29.78537575 -90.78457287 14.63067354 -61.77765822 6.07967401 C-61.00897414 5.84925408 -60.24029006 5.61883416 -59.44831252 5.38143182 C-39.83060922 -0.07873205 -20.17708267 -0.04712498 0 0 Z " fill="#0B0B0B" transform="translate(186.27765822410583,-0.39217400550842285)"/>
<path d="M0 0 C4.35318563 0.00685818 8.70633674 -0.00372386 13.05951524 -0.01193976 C21.56239558 -0.02520791 30.06519601 -0.02243044 38.56807935 -0.01370184 C45.48489882 -0.00689826 52.40169606 -0.00602007 59.31851792 -0.00927329 C60.30681257 -0.00973299 61.29510721 -0.01019269 62.31335017 -0.01066632 C64.32169514 -0.01162559 66.33004009 -0.01259824 68.33838505 -0.01358409 C87.12530791 -0.02211772 105.91218671 -0.01233579 124.69910234 0.00381701 C140.78320551 0.01721833 156.86724369 0.01488967 172.95134568 0.00106072 C191.67576326 -0.01503103 210.40014231 -0.02129393 229.12456584 -0.01210248 C231.1250991 -0.01114694 233.12563236 -0.01020383 235.12616563 -0.00927329 C236.60222156 -0.00857905 236.60222156 -0.00857905 238.10809681 -0.00787079 C245.00836548 -0.00529166 251.90860951 -0.00962851 258.80887437 -0.01671195 C267.2297878 -0.02516724 275.65061744 -0.02276278 284.0715214 -0.00686972 C288.35951832 0.00095918 292.64737607 0.00419774 296.93537164 -0.00581717 C329.96857578 -0.07661028 329.96857578 -0.07661028 345.72234178 3.39217401 C347.30047528 3.73927391 347.30047528 3.73927391 348.91049027 4.09338593 C351.33597132 4.65856218 353.71076217 5.30655755 356.09734178 6.01717401 C356.95617967 6.26950799 357.81501756 6.52184197 358.69988084 6.78182244 C389.91123853 16.32335346 420.14502569 34.71729552 440.72234178 60.39217401 C441.45452928 61.27518182 442.18671678 62.15818963 442.94109178 63.06795526 C454.15825944 77.03616879 463.38760461 92.62159815 469.72234178 109.39217401 C469.98740525 110.08987908 470.25246873 110.78758416 470.52556443 111.50643182 C476.33752093 127.11008114 480.83535204 144.35830758 480.85376954 161.0881846 C480.85761069 162.40364479 480.86145183 163.71910498 480.86540937 165.0744276 C480.86462926 166.52244518 480.86375049 167.9704627 480.86278367 169.41848016 C480.86536937 170.96603087 480.8683831 172.51358092 480.87178707 174.06113005 C480.87983675 178.30702963 480.88164552 182.55291228 480.88238454 186.79881859 C480.88423873 191.38124678 480.89178808 195.96366627 480.89851975 200.54608941 C480.91209091 210.56522494 480.91812639 220.58435646 480.92253041 230.60349965 C480.92529587 236.86536708 480.92953387 243.12723297 480.93403459 249.38909936 C480.94622751 266.74164888 480.95652558 284.09419717 480.95990968 301.44675088 C480.96012924 302.55701479 480.96034881 303.66727871 480.96057503 304.81118698 C480.96079331 305.92405195 480.96101158 307.03691691 480.96123648 308.18350506 C480.96167994 310.43844549 480.9621265 312.69338592 480.96257615 314.94832635 C480.96279758 316.06684571 480.96301901 317.18536507 480.96324715 318.33777896 C480.96719071 336.4404907 480.98463114 354.54316209 481.00793567 372.64585826 C481.03169372 391.25182739 481.04411362 409.85777631 481.0452776 428.46376085 C481.04619205 438.90199521 481.05188606 449.34017702 481.07009721 459.77839684 C481.08555864 468.67170102 481.09058334 477.56493643 481.08235911 486.45825151 C481.07847339 490.989202 481.07927937 495.52001427 481.09341645 500.05094743 C481.19604051 534.93137624 481.19604051 534.93137624 477.72234178 550.39217401 C477.49090093 551.44188756 477.25946008 552.49160111 477.02100587 553.57312417 C476.45687825 556.00152498 475.80869639 558.37811534 475.09734178 560.76717401 C474.84500779 561.6260119 474.59267381 562.48484979 474.33269334 563.36971307 C466.77921952 588.07792528 453.99754009 612.79013602 435.23845506 630.87606072 C433.5684943 632.48246892 433.5684943 632.48246892 431.78484178 634.89217401 C407.06647279 664.85383338 364.13425412 680.58149542 326.72234178 685.39217401 C324.5829475 685.47958551 322.44138275 685.52284587 320.30020642 685.52639508 C319.04581405 685.53085293 317.79142168 685.53531077 316.49901742 685.5399037 C315.11988118 685.53981442 313.74074495 685.53962461 312.36160874 685.53934503 C310.88631749 685.54264753 309.41102713 685.54637391 307.93573791 685.55048651 C303.8894589 685.56047138 299.84319473 685.56421765 295.79690516 685.56687582 C291.42914375 685.57078953 287.06139396 685.58036734 282.69363999 685.58908868 C272.14685959 685.60882668 261.60007827 685.61891754 251.05328402 685.62781647 C246.07863075 685.63220517 241.10397854 685.6375706 236.12932611 685.64280534 C219.57714489 685.65981766 203.02496431 685.67430862 186.4727757 685.68155408 C182.17990644 685.68346378 177.88703719 685.68538414 173.59416795 685.68734002 C172.52727597 685.68782376 171.46038399 685.6883075 170.36116195 685.6888059 C153.10434394 685.69709417 135.84759552 685.72241072 118.59080785 685.7549207 C100.84702391 685.78807362 83.10327523 685.8060104 65.35946018 685.80919832 C55.40792236 685.81135619 45.45648591 685.81999803 35.50497842 685.84565949 C27.02383686 685.86747955 18.5428213 685.87536192 10.06165486 685.86569271 C5.74293893 685.86118002 1.42448231 685.86285477 -2.89419723 685.88245416 C-55.43626192 686.1074062 -100.74579991 671.33007997 -138.68537307 633.97615838 C-171.42864501 601.4035812 -186.60235897 556.24244217 -186.81287456 510.82032037 C-186.82302727 506.61481338 -186.8130361 502.40947098 -186.8005569 498.20397925 C-186.7913978 493.6258286 -186.80552918 489.04773574 -186.81647658 484.4695971 C-186.83415205 475.53095578 -186.83047117 466.59244971 -186.81882602 457.65380335 C-186.8097484 450.38143224 -186.80858629 443.10909873 -186.81292129 435.83672357 C-186.81353422 434.7969697 -186.81414715 433.75721583 -186.81477866 432.68595427 C-186.81605771 430.5729281 -186.81735457 428.45990194 -186.81866902 426.34687579 C-186.83004268 406.58840589 -186.81701177 386.83001054 -186.79546756 367.07155287 C-186.77759952 350.16178773 -186.78070454 333.25213248 -186.7991426 316.34236932 C-186.82060634 296.64883804 -186.82894434 276.95537191 -186.81669354 257.26183057 C-186.81541951 255.1570952 -186.81416202 253.05235983 -186.81292129 250.94762444 C-186.81230418 249.91237616 -186.81168708 248.87712788 -186.81105128 247.81050843 C-186.80761485 240.55694233 -186.81338965 233.30341796 -186.8228395 226.04985833 C-186.83412227 217.19576398 -186.83088869 208.34181126 -186.80971652 199.48773289 C-186.79928984 194.98058232 -186.7949388 190.47366684 -186.80831313 185.96651864 C-186.85789733 167.74745647 -186.64677144 150.20684514 -182.27765822 132.39217401 C-181.94222955 130.95206704 -181.60727182 129.51185029 -181.27284408 128.07151055 C-174.61619103 100.40382788 -159.316423 74.45219626 -140.21515822 53.57967401 C-139.74489211 53.06461297 -139.274626 52.54955194 -138.7901094 52.01888299 C-117.9981584 29.78537575 -90.78457287 14.63067354 -61.77765822 6.07967401 C-61.00897414 5.84925408 -60.24029006 5.61883416 -59.44831252 5.38143182 C-39.83060922 -0.07873205 -20.17708267 -0.04712498 0 0 Z M106.47820115 63.0381701 C103.96843871 63.36056162 101.48081342 63.58714652 98.95671678 63.75545526 C88.71677336 64.46341289 79.0517092 66.62480734 69.15984178 69.26717401 C67.88657029 69.60708367 66.61329881 69.94699334 65.30144334 70.2972033 C58.23004345 72.25128977 51.47559654 74.53803243 44.72234178 77.39217401 C42.06321823 78.41363159 39.39363471 79.40280625 36.72234178 80.39217401 C36.72234178 81.05217401 36.72234178 81.71217401 36.72234178 82.39217401 C35.89605271 82.48498651 35.06976365 82.57779901 34.21843553 82.67342401 C30.04798666 83.53081238 26.60313779 85.05225836 22.78484178 86.89217401 C21.67375047 87.42185784 21.67375047 87.42185784 20.54021287 87.96224236 C13.56249775 91.35441446 6.93528946 95.2316624 0.37126756 99.35897088 C-1.10800949 100.28587352 -2.60027038 101.1919783 -4.09406447 102.09529901 C-18.23373294 110.77718188 -30.92223698 121.37632133 -43.27765822 132.39217401 C-44.22769729 133.23006463 -45.17773635 134.06795526 -46.15656447 134.93123651 C-54.15448209 142.03778315 -61.37723796 149.33477102 -68.07062697 157.69295526 C-70.00381843 160.05726552 -72.00650615 162.28684664 -74.09015822 164.51717401 C-90.81912083 183.23373612 -105.55847751 207.71130203 -114.13703322 231.30233026 C-115.22960349 234.26199834 -116.44902474 237.12830615 -117.71515822 240.01717401 C-126.44993084 260.88205404 -131.43540553 283.06024792 -133.96808791 305.46297479 C-134.27765822 307.39217401 -134.27765822 307.39217401 -135.27765822 309.39217401 C-138.17519236 324.87388924 -137.56641697 340.71962268 -137.27765822 356.39217401 C-137.26363967 357.25407342 -137.24962111 358.11597283 -137.23517776 359.00399041 C-137.03792561 368.25043871 -135.81306441 377.26488782 -134.40265822 386.39217401 C-134.24120315 387.44380731 -134.07974807 388.49544061 -133.91340041 389.57894158 C-133.02169646 395.01011124 -131.84727484 400.06984767 -129.99299026 405.24984002 C-129.02117331 408.16031567 -128.41913224 411.11112068 -127.78742385 414.11043572 C-126.89303952 418.11374796 -125.71186766 422.02902361 -124.52765822 425.95467401 C-124.13731399 427.24969842 -124.13731399 427.24969842 -123.73908401 428.57088494 C-120.37819299 439.53970283 -116.56554849 450.19409992 -111.27765822 460.39217401 C-111.02886916 461.23135369 -110.7800801 462.07053338 -110.52375197 462.93514276 C-108.72288414 467.9312808 -106.15511064 472.43881593 -103.59015822 477.07967401 C-103.04778518 478.06629022 -102.50541213 479.05290643 -101.94660354 480.0694201 C-98.28545903 486.68377113 -94.49546005 493.116166 -90.27765822 499.39217401 C-89.67953322 500.32416619 -89.08140822 501.25615838 -88.46515822 502.21639276 C-80.89197854 513.89680094 -72.28419677 524.5606119 -62.77765822 534.70858026 C-60.641364 537.00175859 -58.57063057 539.32880662 -56.52765822 541.70467401 C-50.87281966 548.18639934 -44.79908909 553.69274641 -38.08625197 559.07576776 C-35.46368995 561.23874311 -32.99943445 563.49773204 -30.52765822 565.82967401 C-24.85800947 571.00946511 -18.5360082 575.06417438 -12.08478713 579.18709588 C-10.18796662 580.45198456 -8.38776272 581.8127683 -6.57062697 583.18904901 C-3.38389797 585.76288373 -3.38389797 585.76288373 0.72234178 585.39217401 C0.72234178 586.05217401 0.72234178 586.71217401 0.72234178 587.39217401 C3.0276602 588.9740787 5.31627558 590.41662374 7.72234178 591.82967401 C8.37074021 592.22477166 9.01913865 592.61986932 9.68718553 593.02693963 C14.23340701 595.73216647 18.74829496 597.6019347 23.72234178 599.39217401 C24.924175 600.0326407 26.11217701 600.69974493 27.28484178 601.39217401 C33.64409211 605.09210147 40.48730125 607.46912039 47.40984178 609.89217401 C48.29325242 610.20187127 49.17666306 610.51156854 50.08684373 610.83065057 C55.64115443 612.74870055 61.17382242 614.43759747 66.92156053 615.68904901 C69.34202944 616.2966981 71.60248361 617.03755005 73.95281053 617.86483026 C78.69617158 619.47239844 83.40187734 620.34981917 88.34734178 621.07967401 C89.1542949 621.20922479 89.96124803 621.33877557 90.79265428 621.47225213 C95.49359676 622.19341944 99.96782293 622.52601435 104.72234178 622.39217401 C104.72234178 623.05217401 104.72234178 623.71217401 104.72234178 624.39217401 C116.38973461 626.31909169 127.7892515 626.75308621 139.59734178 626.70467401 C140.49830583 626.70318353 141.39926988 626.70169305 142.32753587 626.7001574 C155.98463478 626.65965566 169.35835563 626.03727067 182.86296678 623.85408807 C185.90560502 623.36256898 188.95328256 622.91935709 192.00359178 622.47811151 C202.91206843 620.84436902 213.26306404 618.71522982 223.68279099 615.0850451 C226.79620538 614.02736374 229.94068376 613.07412804 233.08318162 612.10701776 C244.25016236 608.65434086 254.6319123 604.58534643 265.01604295 599.20906854 C268.84710414 597.24254883 272.58128017 595.63963666 276.72234178 594.39217401 C276.72234178 593.73217401 276.72234178 593.07217401 276.72234178 592.39217401 C277.5911699 592.13307244 278.45999803 591.87397088 279.35515428 591.60701776 C293.5634233 586.48083253 307.27439618 575.0014408 319.09734178 565.76717401 C319.61933152 565.36071649 320.14132127 564.95425897 320.67912889 564.53548455 C336.72353276 551.78647172 352.41811701 536.8133133 364.72234178 520.39217401 C365.69148745 519.13886841 366.66161929 517.88632505 367.63249803 516.63436151 C373.87991131 508.51467351 379.53291716 500.2364074 384.72234178 491.39217401 C385.57767 489.979841 386.43452852 488.56843399 387.29265428 487.15779901 C395.1553122 475.51601224 395.1553122 475.51601224 398.72234178 462.39217401 C399.38234178 462.39217401 400.04234178 462.39217401 400.72234178 462.39217401 C403.52210422 457.1773493 405.9615869 452.28890735 407.20671678 446.48983026 C407.80856055 444.04142034 408.64837725 441.75256169 409.53484178 439.39217401 C411.29091059 434.65410154 412.92393178 429.88885329 414.47234178 425.07967401 C414.69510789 424.41000604 414.917874 423.74033807 415.1473906 423.05037713 C416.41923904 419.04358017 416.95662919 415.58982359 416.72234178 411.39217401 C417.38234178 411.39217401 418.04234178 411.39217401 418.72234178 411.39217401 C418.8685698 410.46880242 419.01479783 409.54543084 419.16545701 408.5940783 C419.70949247 405.16650383 420.25579603 401.73930689 420.8036406 398.31234002 C421.04022802 396.82941205 421.27591199 395.34633965 421.51067185 393.86312127 C421.84837991 391.73049136 422.18933978 389.59840296 422.53093553 387.46639276 C422.73517137 386.18337274 422.93940721 384.90035272 423.14983201 383.5784533 C423.72234178 380.39217401 423.72234178 380.39217401 424.72234178 377.39217401 C426.03965207 366.06226003 425.96481323 354.59447402 425.97234178 343.20467401 C425.97301652 342.28142327 425.97369126 341.35817254 425.97438645 340.40694451 C426.47152333 304.43345269 426.47152333 304.43345269 416.70403123 270.44295526 C415.55938763 268.05175748 415.21637351 265.94581995 414.83171678 263.32576776 C413.82601816 257.43147384 412.06847294 252.04237776 409.97234178 246.45467401 C409.61817185 245.49464471 409.26400193 244.53461541 408.89909959 243.54549432 C406.60593855 237.43935858 404.07042946 231.64283864 401.00359178 225.88436151 C399.79955032 223.54235404 398.87120196 221.2390395 397.97234178 218.76717401 C393.10716802 206.19880847 385.46309591 194.36219981 377.72234178 183.39217401 C377.12292771 182.52979119 376.52351365 181.66740838 375.90593553 180.77889276 C368.02439368 169.67233588 359.54002612 158.76374812 349.69499803 149.32967401 C347.76449652 147.43357747 346.02666971 145.46135244 344.28484178 143.39217401 C336.76809453 134.69128164 327.55764827 127.75126734 318.48943162 120.76082635 C316.7935578 119.44733248 315.11002133 118.11959836 313.42937303 116.78670526 C299.87888707 106.09339839 285.29821452 97.813073 270.10564256 89.69026971 C268.0621577 88.57725916 266.06091332 87.41858431 264.06218553 86.22811151 C260.36986978 84.19841747 256.6822208 82.73687239 252.72234178 81.32967401 C251.36757326 80.84045204 250.01340043 80.34957723 248.65984178 79.85701776 C247.65944871 79.49422723 247.65944871 79.49422723 246.63884568 79.1241076 C244.89733544 78.45900598 243.19323042 77.69796486 241.49577928 76.92733026 C236.30984494 74.66564586 230.79652032 73.36370925 225.34734178 71.89217401 C223.17226547 71.30061525 220.99777428 70.70690044 218.82390428 70.11092401 C217.76864549 69.82257684 216.7133867 69.53422967 215.62615037 69.23714471 C213.20921961 68.53384915 210.90191752 67.73041167 208.55046678 66.84139276 C201.26595922 64.36719193 193.44878028 63.67462941 185.84734178 62.70467401 C184.99419389 62.59478143 184.141046 62.48488885 183.26204515 62.37166619 C157.45731385 59.11897653 132.2466696 59.4051405 106.47820115 63.0381701 Z " fill="#0B0B0B" transform="translate(186.27765822410583,-0.39217400550842285)"/>
<path d="M0 0 C0 1.65 0 3.3 0 5 C-0.99 5.33 -1.98 5.66 -3 6 C-4.08885464 8.67813829 -4.08885464 8.67813829 -5 12 C-5.8569991 14.02952969 -6.71913033 16.0551223 -7.609375 18.0703125 C-8.15513001 20.00389456 -8.15513001 20.00389456 -7.4609375 21.87890625 C-5.34025199 24.95786943 -2.6449964 27.33576522 0.125 29.8125 C0.71466553 30.3480249 1.30433105 30.8835498 1.91186523 31.43530273 C5.53980558 34.72080613 9.20780167 37.95875451 12.91015625 41.16015625 C16.62268995 44.42857377 20.24216525 47.79982659 23.875 51.15625 C26.17162201 53.26456918 28.50871753 55.31993143 30.86328125 57.36328125 C35.07294473 61.03337239 39.13663428 64.8438156 43.1875 68.6875 C49.89563023 75.02633502 56.63962815 81.32212501 63.43847656 87.56347656 C65.09548763 89.08784384 66.74722482 90.61779255 68.3984375 92.1484375 C69.49473255 93.1615223 70.59108467 94.17454537 71.6875 95.1875 C72.19321533 95.65776611 72.69893066 96.12803223 73.2199707 96.61254883 C75.9022192 99.09497146 75.9022192 99.09497146 79 101 C79.26554688 99.89140625 79.53109375 98.7828125 79.8046875 97.640625 C80.16120621 96.17702189 80.51799103 94.71348359 80.875 93.25 C81.04902344 92.52039063 81.22304688 91.79078125 81.40234375 91.0390625 C82.29028285 87.42153285 83.28557667 84.31894773 85 81 C85.29959507 79.4881545 85.54405533 77.96492294 85.75 76.4375 C86.80303191 70.1778103 88.71937108 64.30264511 90.67773438 58.28222656 C92.72292228 51.96914653 94.4992393 45.62797942 96.140625 39.19921875 C96.72084478 37.03921877 97.37576351 34.89811697 98.09765625 32.78125 C99.47143113 28.54693089 99.40096024 25.20288071 98 21 C97.278125 20.87625 96.55625 20.7525 95.8125 20.625 C93 20 93 20 90.8125 18.96875 C87.23795765 17.73751874 83.91507784 17.78225644 80.1875 17.875 C79.49462891 17.88402344 78.80175781 17.89304688 78.08789062 17.90234375 C76.39177605 17.92573843 74.69584129 17.96160359 73 18 C73.0902646 12.85491759 73.54017915 9.93437339 77.125 6.125 C83.26558956 0.6791034 89.65664297 0.7832298 97.5234375 0.83203125 C100 1 100 1 101 2 C103.905506 2.10090623 106.78216783 2.13865074 109.6875 2.125 C110.8930957 2.13080078 110.8930957 2.13080078 112.12304688 2.13671875 C116.54700278 2.12948415 120.63423693 1.76695838 125 1 C142.43090335 0.02431973 157.44747179 4.0398743 173 12 C173.99 12.495 174.98 12.99 176 13.5 C176.99 13.995 177.98 14.49 179 15 C180.6396875 15.7734375 180.6396875 15.7734375 182.3125 16.5625 C185 18 185 18 186 20 C185.36497559 20.02505615 184.72995117 20.0501123 184.07568359 20.07592773 C181.17528458 20.19256789 178.27515651 20.31498393 175.375 20.4375 C173.87646484 20.49647461 173.87646484 20.49647461 172.34765625 20.55664062 C171.37441406 20.59853516 170.40117187 20.64042969 169.3984375 20.68359375 C168.50817871 20.72025146 167.61791992 20.75690918 166.70068359 20.79467773 C163.75797548 21.01840016 160.90307107 21.47640374 158 22 C161.20009746 36.69521827 165.39647005 51.07301364 169.625 65.5 C170.64952049 69.0017337 171.67269792 72.50383965 172.69247437 76.00695801 C173.32177256 78.16820012 173.95378163 80.32865549 174.58901978 82.48815918 C176.2808373 88.29264198 177.75810585 94.08242416 179 100 C182.22221341 98.29412231 184.67781425 96.42084662 187.1875 93.8125 C188.115625 92.884375 189.04375 91.95625 190 91 C190.66 91 191.32 91 192 91 C192.38188477 90.11248047 192.38188477 90.11248047 192.77148438 89.20703125 C194.13054714 86.76547175 195.51232085 85.46456491 197.65625 83.6875 C201.72460069 80.24223005 205.62403059 76.65910439 209.5 73 C210.17998047 72.360625 210.85996094 71.72125 211.56054688 71.0625 C213.70826576 69.04297371 215.85434473 67.0217185 218 65 C220.83183558 62.33173615 223.66540172 59.66532843 226.5 57 C227.13357422 56.401875 227.76714844 55.80375 228.41992188 55.1875 C232.23432882 51.60123701 236.1245329 48.12170807 240.07617188 44.6875 C242.93533504 42.17956399 245.71800319 39.59283306 248.5 37 C260.93188974 25.47473339 260.93188974 25.47473339 267 21 C265.57463018 15.72613165 263.03563324 11.29203455 260.33984375 6.5859375 C259.17417391 4.33616072 258.47000349 2.47187023 258 0 C269.0043905 4.11929056 277.64438375 11.81912679 286.30444336 19.51342773 C288.0601451 21.05273196 289.85129046 22.54377409 291.64453125 24.0390625 C294.59473175 26.56259466 297.03685141 29.24929056 299.4375 32.3125 C302.30325707 35.91181263 305.21816506 39.40758126 308.3125 42.8125 C316 51.38997006 316 51.38997006 316 56 C316.99 56.33 317.98 56.66 319 57 C321 60 321 60 321 63 C319.3203125 64.82421875 319.3203125 64.82421875 317.125 66.6875 C316.04605469 67.62142578 316.04605469 67.62142578 314.9453125 68.57421875 C313 70 313 70 311 70 C311 70.66 311 71.32 311 72 C309.49609375 73.48046875 309.49609375 73.48046875 307.4375 75.1875 C301.5275179 80.22347066 296.26611867 85.63038688 291.20703125 91.51171875 C288.24994773 94.84563415 285.18277717 98.0711187 282.125 101.3125 C277.13995537 106.60643994 272.42693345 111.99474704 267.9140625 117.69921875 C266.17903187 119.78479638 264.38546471 121.56190968 262.375 123.375 C259.70718713 125.70764429 259.70718713 125.70764429 260.09765625 128.40234375 C261.19872074 131.57207486 262.594089 132.93078806 265.0625 135.1875 C268.28927859 138.26668146 271.19622267 141.35609502 273.9375 144.875 C277.61914556 149.59806722 281.57157303 154.00452602 285.625 158.41015625 C288.20582161 161.22444034 290.7180036 164.09083237 293.22265625 166.97265625 C296.05554282 170.20401478 298.94443867 173.38468081 301.82421875 176.57421875 C303.67443563 178.63702788 305.49944809 180.7171237 307.3125 182.8125 C311.39795371 187.5018083 315.63587674 192.04850606 319.86328125 196.609375 C321.93156943 198.84140534 323.99156944 201.08056271 326.04296875 203.328125 C326.52991211 203.86147461 327.01685547 204.39482422 327.51855469 204.94433594 C328.85554291 206.41014615 330.19147786 207.87691687 331.52734375 209.34375 C333.96338482 211.96066616 336.45650272 214.48835331 339 217 C337.48905931 220.14126209 335.7721414 223.09765388 333.953125 226.0703125 C333.355 227.05 332.756875 228.0296875 332.140625 229.0390625 C331.51671875 230.05742187 330.8928125 231.07578125 330.25 232.125 C324.94536978 240.79912288 324.94536978 240.79912288 319.671875 249.4921875 C319.20362305 250.26675293 318.73537109 251.04131836 318.25292969 251.83935547 C317.08193471 253.85870573 316.01803192 255.90008538 315 258 C311.63610332 257.75082247 310.85958456 256.84158258 308.5625 254.25 C308.19253906 253.76015625 307.82257813 253.2703125 307.44140625 252.765625 C305.45917789 250.33752956 303.22287216 248.21083315 301 246 C299.95954397 244.95060639 298.92029683 243.90001322 297.88206482 242.84841919 C297.31722382 242.27635239 296.75238281 241.70428558 296.17042542 241.11488342 C295.56818649 240.50478928 294.96594757 239.89469513 294.34545898 239.26611328 C287.77095239 232.61009483 281.18386611 225.96667333 274.58944607 219.33038521 C270.60383679 215.3185726 266.62307727 211.30217239 262.65258789 207.27539062 C258.80626707 203.37490405 254.94800055 199.48661692 251.08101082 195.6066246 C249.60897744 194.12533569 248.14136012 192.63964506 246.67822075 191.14957047 C244.63858925 189.07384861 242.58405249 187.01409863 240.52514648 184.95751953 C239.92088333 184.33528 239.31662018 183.71304047 238.69404602 183.07194519 C236.84871214 181.19032898 236.84871214 181.19032898 234 179 C229.74805092 179.40194781 227.80650016 181.95962483 225 185 C226.30153652 187.7620654 227.74704121 190.14358532 229.6015625 192.56640625 C230.09140625 193.21673828 230.58125 193.86707031 231.0859375 194.53710938 C232.11672335 195.89361309 233.15061087 197.24776518 234.1875 198.59960938 C234.67476563 199.24865234 235.16203125 199.89769531 235.6640625 200.56640625 C236.33622803 201.44727905 236.33622803 201.44727905 237.02197266 202.34594727 C238 204 238 204 238 207 C238.99 207.33 239.98 207.66 241 208 C242.46704102 209.65136719 242.46704102 209.65136719 244.00390625 211.796875 C244.57455811 212.58425049 245.14520996 213.37162598 245.7331543 214.18286133 C246.63868042 215.45359497 246.63868042 215.45359497 247.5625 216.75 C248.82970635 218.49943925 250.09793928 220.24813535 251.3671875 221.99609375 C251.98819336 222.85444824 252.60919922 223.71280273 253.24902344 224.59716797 C259.2631339 232.85021804 265.64351325 240.83121461 271.9699707 248.84545898 C274.83106743 252.4799341 277.62282305 256.15679385 280.375 259.875 C282.98315422 263.39529559 285.65648707 266.82318059 288.44921875 270.19921875 C289.04621582 270.92189941 289.64321289 271.64458008 290.25830078 272.38916016 C291.44406473 273.81753237 292.63628158 275.24057677 293.83544922 276.65771484 C294.37572754 277.30820801 294.91600586 277.95870117 295.47265625 278.62890625 C295.96000244 279.20713135 296.44734863 279.78535645 296.94946289 280.38110352 C298 282 298 282 298 285 C296.38549579 286.71724539 294.70708751 288.37475916 293 290 C291.07617371 292.10405552 289.22558152 294.2689502 287.375 296.4375 C286.8601001 297.03933105 286.3452002 297.64116211 285.81469727 298.26123047 C279.27689508 305.95734005 273.02712084 313.89796871 267 322 C263.1876318 320.48020457 261.28562869 318.24115683 258.75 315.0625 C257.96109375 314.07378906 257.1721875 313.08507812 256.359375 312.06640625 C253.49850112 308.34821752 250.75614706 304.55501942 248.0234375 300.7421875 C245.25830701 296.99484849 242.29198108 293.43126575 239.32421875 289.84375 C233.80125907 283.08624639 228.58357313 276.08238791 223.30078125 269.13671875 C221.95059197 267.36192505 220.60032968 265.58718688 219.25 263.8125 C218.56945557 262.91781006 217.88891113 262.02312012 217.18774414 261.10131836 C212.06700244 254.3781184 206.89926901 247.69306213 201.69238281 241.03637695 C198.06983299 236.40028394 194.51309382 231.71958702 191 227 C186.67645123 228.44118292 184.40219506 231.18335456 182 235 C181.5556344 240.11020435 184.5073379 243.44107566 187.31640625 247.44921875 C191.87776273 254.36004422 195.05240535 261.97983588 197.9921875 269.6875 C199.02684557 272.06159914 200.25821461 274.09382089 201.6875 276.25 C203.81576715 279.46198601 204.70725262 282.09670162 205 286 C205.66 286 206.32 286 207 286 C207.99 289.3 208.98 292.6 210 296 C210.66 296 211.32 296 212 296 C217.92851052 306.60992336 217.92851052 306.60992336 219.6875 310.875 C220.90440661 314.00921924 220.90440661 314.00921924 222.6875 316.6875 C224 319 224 319 224 323 C224.66 323 225.32 323 226 323 C227.31799019 325.41381346 228.62950918 327.83077596 229.9375 330.25 C230.31068359 330.93191406 230.68386719 331.61382812 231.06835938 332.31640625 C231.60493164 333.31220703 231.60493164 333.31220703 232.15234375 334.328125 C232.48226318 334.9355957 232.81218262 335.54306641 233.15209961 336.16894531 C234 338 234 338 234.53344727 340.14746094 C234.85041037 342.07485076 234.85041037 342.07485076 236.3125 343.3125 C240.29280389 347.29280389 241.99138383 351.61445365 243 357 C236.29323713 357.27965743 229.58798189 357.47182356 222.87670898 357.60424805 C220.5958642 357.65945981 218.31540694 357.73445186 216.03588867 357.82983398 C197.04828778 358.6042465 197.04828778 358.6042465 191.94580078 354.60791016 C190.09820176 351.74231383 188.93997527 349.26651096 188 346 C187.67 345.01 187.34 344.02 187 343 C186.34 343 185.68 343 185 343 C184.73445313 342.27167969 184.46890625 341.54335938 184.1953125 340.79296875 C183.00529212 338.01236557 181.61048964 335.78159034 179.875 333.3125 C177 329.22009569 177 329.22009569 177 327 C176.01 326.67 175.02 326.34 174 326 C172.90234375 324.07421875 172.90234375 324.07421875 171.9375 321.6875 C170.18604875 317.23648008 170.18604875 317.23648008 168 313 C167.01 312.67 166.02 312.34 165 312 C164.88269531 312.54914063 164.76539063 313.09828125 164.64453125 313.6640625 C163.02420989 319.53649992 160.23816068 325.44163617 156.75 330.4375 C155.17197126 332.74818494 154.41989972 334.27065182 154 337 C153.34 337 152.68 337 152 337 C151.01 340.3 150.02 343.6 149 347 C148.34 347 147.68 347 147 347 C146.67 348.175625 146.34 349.35125 146 350.5625 C144.02809609 356.51577181 141.00439517 361.84103433 137.99609375 367.31640625 C135.85861962 371.2114263 133.95236091 375.20169419 132.10546875 379.2421875 C131 381 131 381 128 382 C127.32845067 380.71086513 126.66291141 379.41859796 126 378.125 C125.62875 377.40570312 125.2575 376.68640625 124.875 375.9453125 C124 374 124 374 124 372 C123.34 372 122.68 372 122 372 C121.01 368.7 120.02 365.4 119 362 C118.34 362 117.68 362 117 362 C116.649375 360.9275 116.29875 359.855 115.9375 358.75 C114.08807133 353.7680462 111.36704743 349.38806669 108.6484375 344.83984375 C106.09750563 340.4452289 104.0035227 336.01761352 103 331 C102.34 331 101.68 331 101 331 C100.75765625 330.443125 100.5153125 329.88625 100.265625 329.3125 C98.52140257 325.3410397 96.73252281 321.42133904 94.75 317.5625 C93 314 93 314 93 312 C89.03228287 313.32257238 88.07204376 315.72284158 86.0859375 319.16796875 C85.7119986 319.79923172 85.33805969 320.43049469 84.95278931 321.08088684 C83.75177183 323.11159701 82.5628886 325.14908702 81.375 327.1875 C80.59853259 328.51028042 79.82119713 329.83255171 79.04296875 331.15429688 C78.6600618 331.80666321 78.27715485 332.45902954 77.88264465 333.13116455 C77.09792504 334.45340212 76.30243809 335.76930532 75.49662781 337.07879639 C73.49336548 340.3484895 71.72539455 343.53683733 70.25317383 347.08105469 C68.45917317 351.05729584 66.72732862 354.54926024 63 357 C55.25431546 359.26000324 46.88553861 358.31091135 38.9375 357.875 C36.71438827 357.80471294 34.49106374 357.74084527 32.26757812 357.68359375 C26.84038277 357.5299103 21.42118132 357.29628452 16 357 C17.09447753 352.88602639 18.22619584 349.16438619 20.3125 345.44921875 C20.74820313 344.66869141 21.18390625 343.88816406 21.6328125 343.08398438 C22.08398438 342.29314453 22.53515625 341.50230469 23 340.6875 C23.67675781 339.47223633 23.67675781 339.47223633 24.3671875 338.23242188 C27.71449405 332.28550595 27.71449405 332.28550595 30 330 C30.6098029 328.59195879 31.16592208 327.16038311 31.69140625 325.71875 C34.03102227 319.69550616 36.96194826 314.04464377 39.97189331 308.33285522 C41.63748278 305.17133575 43.28709107 302.00149463 44.9375 298.83203125 C45.27389999 298.18671951 45.61029999 297.54140778 45.95689392 296.87654114 C51.44693525 286.32342061 56.71538354 275.65701725 62 265 C62.66 265 63.32 265 64 265 C64.23460937 263.86949219 64.46921875 262.73898437 64.7109375 261.57421875 C66.16875734 255.73651162 69.06339937 250.71295761 71.8984375 245.44726562 C74.90584542 240.02531435 74.90584542 240.02531435 75 234 C73.81212945 231.92837201 73.81212945 231.92837201 72.125 230.1875 C71.59132813 229.58292969 71.05765625 228.97835937 70.5078125 228.35546875 C69.09002581 226.77715372 69.09002581 226.77715372 67 227 C65.45421531 228.79828338 64.03476197 230.59845422 62.625 232.5 C62.18728271 233.07951416 61.74956543 233.65902832 61.29858398 234.25610352 C59.85886283 236.16568971 58.42874304 238.08218905 57 240 C55.02182491 242.64657547 53.04222628 245.29208474 51.0625 247.9375 C50.55871826 248.61151855 50.05493652 249.28553711 49.53588867 249.97998047 C44.90826785 256.15654931 40.15480522 262.2280152 35.36328125 268.27783203 C22.74410179 283.82008937 22.74410179 283.82008937 11 300 C10.34 300 9.68 300 9 300 C8.78214844 300.68964844 8.56429687 301.37929688 8.33984375 302.08984375 C6.62548878 305.81344273 4.25890394 308.50751301 1.5625 311.5625 C0.5836692 312.68796248 -0.39422022 313.81424449 -1.37109375 314.94140625 C-1.82726074 315.46621582 -2.28342773 315.99102539 -2.75341797 316.53173828 C-4.25152184 318.29624997 -5.64613264 320.12294322 -7 322 C-10.08282902 320.65675551 -11.86935039 319.2840503 -13.953125 316.65625 C-14.48591064 315.99181885 -15.01869629 315.3273877 -15.56762695 314.64282227 C-16.12281006 313.93569092 -16.67799316 313.22855957 -17.25 312.5 C-17.8277417 311.77675537 -18.4054834 311.05351074 -19.00073242 310.30834961 C-20.6742746 308.21109624 -22.33859811 306.10687668 -24 304 C-25.43608331 302.18637732 -26.87330478 300.37365422 -28.3125 298.5625 C-29.21742188 297.41587891 -29.21742188 297.41587891 -30.140625 296.24609375 C-32.81209147 293.01900715 -35.70344601 290.00516495 -38.62890625 287.0078125 C-40 285 -40 285 -39.74755859 283.08911133 C-38.93056058 280.80594608 -37.96563206 279.41901613 -36.41015625 277.56640625 C-35.87817627 276.92421143 -35.34619629 276.2820166 -34.7980957 275.62036133 C-34.22534912 274.94126709 -33.65260254 274.26217285 -33.0625 273.5625 C-31.86845238 272.12089993 -30.67575872 270.67817739 -29.484375 269.234375 C-28.89205078 268.51830078 -28.29972656 267.80222656 -27.68945312 267.06445312 C-25.33821275 264.19131894 -23.06421286 261.26394651 -20.8125 258.3125 C-20.41015137 257.78567627 -20.00780273 257.25885254 -19.59326172 256.71606445 C-18.39477979 255.14459793 -17.19738432 253.57230301 -16 252 C-14.39683996 249.91589195 -12.79265474 247.83257214 -11.1875 245.75 C7.60537127 221.4344643 7.60537127 221.4344643 25.70385742 196.6027832 C28.02985908 193.30831994 30.44975109 190.12405492 33 187 C31.56036361 183.64084842 29.87583411 181.28375062 27 179 C22.67905375 179.15209666 20.17512646 182.41776371 17.33276367 185.31079102 C16.77771652 185.86379379 16.22266937 186.41679657 15.65080261 186.98655701 C13.81585009 188.81849964 11.99187594 190.66097158 10.16796875 192.50390625 C8.89066511 193.78426953 7.6127681 195.0640411 6.33430481 196.34324646 C3.65243736 199.02971962 0.97555583 201.72102894 -1.69750977 204.41625977 C-5.10674353 207.85363304 -8.52445872 211.28240631 -11.94554615 214.70797825 C-15.22336187 217.99098185 -18.49649182 221.27864214 -21.76953125 224.56640625 C-22.38704569 225.18580141 -23.00456013 225.80519657 -23.64078712 226.44336128 C-32.37131135 235.18684237 -32.37131135 235.18684237 -40.61077881 244.38963318 C-43.06923233 247.23943997 -45.75587532 249.86211574 -48.4375 252.5 C-49.24864258 253.304375 -49.24864258 253.304375 -50.07617188 254.125 C-51.38176617 255.41904036 -52.69052996 256.70988174 -54 258 C-57.37294855 256.87568382 -57.55983402 256.53971623 -59.19921875 253.60546875 C-59.59995605 252.90268799 -60.00069336 252.19990723 -60.41357422 251.47583008 C-60.83396973 250.72068115 -61.25436523 249.96553223 -61.6875 249.1875 C-66.49594006 240.77140453 -71.69721709 232.75716626 -77.2265625 224.79296875 C-79 222 -79 222 -79 220 C-79.66 220 -80.32 220 -81 220 C-80.45354896 216.08670547 -78.70064387 214.41281015 -75.875 211.75 C-72.30592938 208.36617526 -69.06207874 204.81931979 -65.84716797 201.10546875 C-62.85821398 197.69855107 -59.73930171 194.4169849 -56.625 191.125 C-51.00148429 185.15278204 -45.43913341 179.14131662 -40 173 C-39.4121875 172.34128906 -38.824375 171.68257812 -38.21875 171.00390625 C-34.87504276 167.22703693 -31.66692282 163.36405634 -28.5 159.4375 C-25.44690264 155.67785815 -22.30010218 152.23327704 -18.81640625 148.87890625 C-15.6934441 145.64848734 -12.96205803 142.09432223 -10.16015625 138.5859375 C-8.32992357 136.39495371 -6.47656332 134.48365069 -4.375 132.5625 C-3.59125 131.716875 -2.8075 130.87125 -2 130 C-2.42204667 122.08240441 -12.61212387 114.28138101 -17.98828125 109.07421875 C-20.22565223 106.76733721 -22.19211097 104.33126975 -24.1875 101.8125 C-29.19570857 95.56748167 -34.80316957 90.02884795 -40.52075195 84.44482422 C-46.65122825 78.45701126 -46.65122825 78.45701126 -48.8125 75.625 C-51.32503708 72.6099555 -54.11078219 70.18240743 -57.09765625 67.6484375 C-58.81221871 66.16271808 -60.41884241 64.62548911 -62 63 C-60.68739351 56.76308096 -57.99701576 52.76215587 -54.0625 47.8125 C-53.47911865 47.06637451 -52.8957373 46.32024902 -52.29467773 45.55151367 C-47.61130615 39.62705818 -42.73085989 33.95685978 -37.47607422 28.52734375 C-36.43494993 27.45005736 -35.4007437 26.3660641 -34.37158203 25.27734375 C-26.5223722 16.98248691 -18.64740807 10.13226204 -9 4 C-7.948125 3.26007813 -6.89625 2.52015625 -5.8125 1.7578125 C-3 0 -3 0 0 0 Z " fill="#F6F7F4" transform="translate(202,175)"/>
<path d="M0 0 C0.80053802 0.09796875 1.60107605 0.1959375 2.4258728 0.296875 C13.12794791 1.63979389 23.20161504 3.93187629 33.47290039 7.2102356 C36.25478541 8.09106766 39.05508774 8.9067607 41.85546875 9.7265625 C43.75802251 10.29617401 45.66037291 10.86646532 47.5625 11.4375 C48.53251953 11.72367188 49.50253906 12.00984375 50.50195312 12.3046875 C55.40057863 13.77997513 59.836587 15.41371948 64.375 17.8125 C66.20197023 18.47612007 68.03584142 19.12094713 69.875 19.75 C90.96045276 27.70860587 112.27240297 40.97045579 129.4765625 55.4140625 C131.51260223 57.09887165 133.55068733 58.73292818 135.6484375 60.3359375 C146.78673638 68.85280953 157.7319437 78.0229016 166.71875 88.84375 C168.7926388 91.30893858 170.99235691 93.64225371 173.1875 96 C189.89060987 114.37089391 206.44148733 137.61763817 215 161.0625 C215.98489598 163.74857994 216.95435524 166.01785772 218.26953125 168.515625 C220.37354973 172.67187664 221.94816171 176.90470097 223.4375 181.3125 C223.92758564 182.73985819 224.4184686 184.16694287 224.91015625 185.59375 C225.14879395 186.29169678 225.38743164 186.98964355 225.63330078 187.70874023 C226.37941759 189.82503008 227.18268946 191.91268279 227.99609375 194.00390625 C229.15686737 197.07190745 229.89913378 199.99329055 230.375 203.25 C230.94395112 206.68251501 231.63791016 209.85075475 232.8125 213.125 C240.25390708 234.62655312 240.65775659 258.11112659 240.625 280.625 C240.62383682 281.97229187 240.62383682 281.97229187 240.62265015 283.34680176 C240.55411087 310.72620956 240.55411087 310.72620956 238 322 C236.09788428 330.88278673 234.73781394 339.83339253 233.375 348.8125 C232.715 348.8125 232.055 348.8125 231.375 348.8125 C231.33375 350.070625 231.2925 351.32875 231.25 352.625 C230.70896613 358.17059713 229.17364559 363.27412501 227.5 368.5625 C227.24331543 369.37823486 226.98663086 370.19396973 226.72216797 371.03442383 C225.2641583 375.51521469 223.54949622 379.61927377 221.375 383.8125 C221.065625 384.905625 220.75625 385.99875 220.4375 387.125 C219.1569838 391.56914447 217.32866864 395.6301317 215.375 399.8125 C214.715 399.8125 214.055 399.8125 213.375 399.8125 C213.08625 400.864375 212.7975 401.91625 212.5 403 C210.69769688 409.10780503 208.1192747 414.18563118 204.875 419.625 C204.43285156 420.36911133 203.99070312 421.11322266 203.53515625 421.87988281 C202.15445155 424.19442107 200.76587491 426.50406137 199.375 428.8125 C198.73884766 429.87380127 198.73884766 429.87380127 198.08984375 430.95654297 C192.40965369 440.39607511 186.33147304 449.27043817 179.375 457.8125 C178.56546875 458.82699219 177.7559375 459.84148437 176.921875 460.88671875 C170.72040474 468.48581816 163.90818128 475.50643854 157.01251221 482.4715271 C155.98204455 483.5124372 154.95375343 484.55550764 153.92791748 485.60098267 C146.56999068 493.08062931 138.83766524 499.61534853 130.375 505.8125 C129.59568115 506.38774414 128.8163623 506.96298828 128.01342773 507.55566406 C126.04278671 508.99419705 124.05879523 510.40983397 122.0625 511.8125 C121.35955811 512.30669434 120.65661621 512.80088867 119.93237305 513.31005859 C114.92292539 516.80008734 109.84546974 520.17108694 104.6875 523.4375 C104.04063232 523.85128906 103.39376465 524.26507812 102.72729492 524.69140625 C99.04606243 526.98259378 95.5807013 528.61087106 91.375 529.8125 C91.375 530.4725 91.375 531.1325 91.375 531.8125 C90.81554687 532.02003906 90.25609375 532.22757813 89.6796875 532.44140625 C84.6072269 534.39047069 79.81013113 536.59455187 75 539.125 C61.00064408 546.34399665 45.50252819 550.61734012 30.375 554.8125 C29.41335938 555.08707031 28.45171875 555.36164062 27.4609375 555.64453125 C20.84045673 557.42843601 14.11878279 558.66192446 7.375 559.875 C6.49247559 560.03750244 5.60995117 560.20000488 4.70068359 560.36743164 C-11.06305228 563.10707367 -26.84432695 564.15121329 -42.8269043 564.07324219 C-45.45449488 564.06243007 -48.08141294 564.07327333 -50.70898438 564.0859375 C-60.85442657 564.09305087 -70.60895984 563.48231549 -80.625 561.8125 C-80.625 561.1525 -80.625 560.4925 -80.625 559.8125 C-81.84509766 559.75642578 -81.84509766 559.75642578 -83.08984375 559.69921875 C-89.99694317 559.30297345 -96.745612 558.60157888 -103.5625 557.4375 C-104.60748657 557.2667395 -104.60748657 557.2667395 -105.67358398 557.0925293 C-110.33643223 556.2565516 -114.26593634 554.71499348 -118.625 552.8125 C-121.15427086 552.13908826 -123.69725222 551.51557715 -126.25 550.9375 C-133.65139697 549.18202391 -140.60710211 546.76740438 -147.625 543.8125 C-148.44613281 543.4721875 -149.26726562 543.131875 -150.11328125 542.78125 C-154.76063046 540.79067555 -159.1289669 538.45836826 -163.51953125 535.95703125 C-165.81003238 534.71191653 -168.17584774 533.74974133 -170.5859375 532.76171875 C-175.44418527 530.50012065 -180.19783261 527.82937104 -184.625 524.8125 C-184.625 524.1525 -184.625 523.4925 -184.625 522.8125 C-185.63820312 522.70808594 -185.63820312 522.70808594 -186.671875 522.6015625 C-190.64457578 521.54007367 -193.51791032 519.50913058 -196.875 517.1875 C-197.54394287 516.73165527 -198.21288574 516.27581055 -198.90209961 515.80615234 C-217.86869634 502.7819785 -235.41239046 487.05292314 -250.625 469.8125 C-251.1701123 469.20172607 -251.71522461 468.59095215 -252.27685547 467.96166992 C-267.24494455 451.07135873 -278.58752234 432.40530672 -289.625 412.8125 C-290.0893042 411.99483154 -290.5536084 411.17716309 -291.03198242 410.3347168 C-293.14654579 406.58294703 -295.16173087 402.91296574 -296.6875 398.875 C-297.01105469 398.03324219 -297.33460938 397.19148438 -297.66796875 396.32421875 C-298.14169922 395.08091797 -298.14169922 395.08091797 -298.625 393.8125 C-299.24780344 392.26994466 -299.87284393 390.72829083 -300.5 389.1875 C-313.28153149 357.10836215 -313.28153149 357.10836215 -315.16796875 342.265625 C-315.49371674 339.8421405 -315.49371674 339.8421405 -316.58886719 337.98803711 C-317.77789901 335.49146253 -318.21238597 333.27832691 -318.66015625 330.55078125 C-318.8293457 329.52380127 -318.99853516 328.49682129 -319.17285156 327.4387207 C-319.34268555 326.34519287 -319.51251953 325.25166504 -319.6875 324.125 C-319.8637793 322.9908667 -320.04005859 321.8567334 -320.22167969 320.68823242 C-321.5705353 311.71094811 -322.47723378 302.89757482 -322.625 293.8125 C-322.64546387 292.70181152 -322.66592773 291.59112305 -322.68701172 290.44677734 C-323.29086933 252.14423866 -323.29086933 252.14423866 -319.625 244.8125 C-319.40732924 243.42975689 -319.23295905 242.04004803 -319.08203125 240.6484375 C-316.32180792 217.0476462 -311.30953928 191.14723522 -299.78125 170.0859375 C-298.43317642 167.43533337 -297.48891906 164.74179191 -296.5 161.9375 C-286.63058946 135.57742881 -268.35759945 111.50767418 -249.625 90.8125 C-249.12162109 90.25272461 -248.61824219 89.69294922 -248.09960938 89.11621094 C-244.97700433 85.6477866 -241.81757032 82.21687515 -238.625 78.8125 C-238.01398438 78.15894531 -237.40296875 77.50539063 -236.7734375 76.83203125 C-232.69179664 72.60530837 -228.21822471 68.94271329 -223.640625 65.265625 C-221.55813464 63.57157843 -219.51143515 61.86649372 -217.484375 60.109375 C-201.72776893 46.45380945 -170.60957418 19.8125 -148.625 19.8125 C-148.625 19.1525 -148.625 18.4925 -148.625 17.8125 C-145.97952502 16.87397903 -143.33363232 15.93666441 -140.6875 15 C-139.95208984 14.73896484 -139.21667969 14.47792969 -138.45898438 14.20898438 C-120.62903127 7.90231974 -103.13691006 2.53099422 -84.21289062 1.05419922 C-81.42399668 0.79372705 -78.66421614 0.42579641 -75.890625 0.03515625 C-50.45029926 -3.48479981 -25.43775932 -3.20266528 0 0 Z M-87.625 38.8125 C-90.01858658 39.28519572 -92.40806685 39.71522261 -94.8125 40.125 C-106.16629741 42.1642001 -117.02518997 45.23850245 -127.625 49.8125 C-129.4693964 50.60238713 -131.3137933 51.39227312 -133.15820312 52.18212891 C-134.98093576 52.9649692 -136.80107928 53.75382965 -138.62109375 54.54296875 C-141.625 55.8125 -141.625 55.8125 -144.625 56.8125 C-144.625 57.4725 -144.625 58.1325 -144.625 58.8125 C-145.33398438 58.92335938 -146.04296875 59.03421875 -146.7734375 59.1484375 C-160.27887372 62.29353909 -172.70634919 72.69933585 -183.625 80.8125 C-184.594375 81.51246094 -185.56375 82.21242187 -186.5625 82.93359375 C-193.06497017 87.68344501 -199.03280462 92.7622986 -204.890625 98.265625 C-207.08950598 100.31372557 -209.31970153 102.2632426 -211.625 104.1875 C-221.89402831 113.13835076 -230.47825061 123.95130134 -238.625 134.8125 C-239.54345703 136.03646484 -239.54345703 136.03646484 -240.48046875 137.28515625 C-244.37923958 142.68416669 -247.87696496 148.33684131 -251.375 154 C-251.84744141 154.76086914 -252.31988281 155.52173828 -252.80664062 156.30566406 C-255.48535584 160.69546132 -257.65832351 165.0479274 -259.625 169.8125 C-260.5514871 171.70761019 -261.51405373 173.58151411 -262.47998047 175.45678711 C-267.42749907 185.06406772 -271.98584727 194.71079485 -274.03515625 205.38671875 C-274.80334756 208.5459691 -275.93028711 211.51526829 -277.0625 214.5625 C-279.50079767 221.23196127 -281.24674713 227.85188959 -282.625 234.8125 C-282.81964844 235.77542969 -283.01429688 236.73835937 -283.21484375 237.73046875 C-285.90434122 252.27731276 -285.83503828 267.19369559 -285.86523438 281.93945312 C-285.87498771 284.80888358 -285.90616331 287.67760972 -285.9375 290.546875 C-286.0005838 301.72882509 -285.05121611 311.89728724 -282.625 322.8125 C-282.10011208 325.95842468 -281.62085441 329.1070803 -281.15234375 332.26171875 C-280.70638877 334.79690607 -280.70638877 334.79690607 -279.7421875 337.015625 C-278.071455 341.19829796 -277.00142655 345.53476652 -275.8125 349.875 C-273.59798245 357.79078009 -271.08210346 365.33956929 -267.625 372.8125 C-266.89389004 374.43662661 -266.16460452 376.06157625 -265.4375 377.6875 C-264.98310547 378.67363281 -264.98310547 378.67363281 -264.51953125 379.6796875 C-263.625 381.8125 -263.625 381.8125 -262.88671875 384.38671875 C-261.01131335 389.47876375 -258.31211081 394.04611718 -255.625 398.75 C-255.04339111 399.77182373 -254.46178223 400.79364746 -253.86254883 401.84643555 C-247.49428581 412.92998997 -240.74677223 423.60249381 -232.57421875 433.4609375 C-231.29569494 435.00336502 -230.04675055 436.57090124 -228.83203125 438.1640625 C-218.00241398 452.12800014 -204.7616251 465.21003118 -190.625 475.8125 C-189.85671875 476.42480469 -189.0884375 477.03710938 -188.296875 477.66796875 C-184.43477186 480.9727229 -184.43477186 480.9727229 -179.625 481.8125 C-179.13 483.2975 -179.13 483.2975 -178.625 484.8125 C-175.20332983 487.49159494 -171.3544597 489.5881739 -167.625 491.8125 C-166.49408936 492.49650879 -166.49408936 492.49650879 -165.34033203 493.19433594 C-162.83814653 494.70428402 -160.32686629 496.19793505 -157.8125 497.6875 C-157.00055176 498.17605469 -156.18860352 498.66460938 -155.35205078 499.16796875 C-151.10290451 501.65254265 -147.642362 503.44084356 -142.625 503.8125 C-142.625 504.4725 -142.625 505.1325 -142.625 505.8125 C-141.79097656 506.12703125 -140.95695313 506.4415625 -140.09765625 506.765625 C-138.40962891 507.40757812 -138.40962891 507.40757812 -136.6875 508.0625 C-135.58535156 508.48015625 -134.48320312 508.8978125 -133.34765625 509.328125 C-130.61546317 510.38749385 -127.95921806 511.56532603 -125.296875 512.7890625 C-120.57484195 514.9061982 -115.77227038 516.47769749 -110.8125 517.9375 C-109.93956299 518.19756836 -109.06662598 518.45763672 -108.16723633 518.72558594 C-102.56432601 520.35503286 -97.02892544 521.65375607 -91.23046875 522.390625 C-88.625 522.8125 -88.625 522.8125 -85.50219727 523.76977539 C-81.36746625 524.96451543 -77.25878713 525.4878073 -72.984375 525.91796875 C-72.16161072 526.00185349 -71.33884644 526.08573822 -70.4911499 526.17216492 C-60.95834249 527.06897936 -51.44315349 527.16281922 -41.875 527.125 C-40.50217865 527.12326279 -40.50217865 527.12326279 -39.10162354 527.12149048 C-25.07693921 527.08649067 -11.43912989 526.39129142 2.375 523.8125 C4.01683858 523.52293525 5.65876493 523.23386767 7.30078125 522.9453125 C11.00201486 522.28095858 14.69082794 521.56644523 18.375 520.8125 C18.375 520.1525 18.375 519.4925 18.375 518.8125 C20.06109375 518.65394531 20.06109375 518.65394531 21.78125 518.4921875 C26.67963037 517.87773398 31.19783948 516.47653356 35.875 514.9375 C37.07962891 514.55271484 37.07962891 514.55271484 38.30859375 514.16015625 C81.13867032 500.34624176 123.38231057 471.0179117 150.375 434.8125 C151.11234375 433.90371094 151.8496875 432.99492187 152.609375 432.05859375 C160.48375891 422.24069152 166.90074744 411.58600921 173.375 400.8125 C174.13371317 399.56746363 174.89277332 398.32263856 175.65234375 397.078125 C178.85061028 391.74993467 181.35118424 386.68156569 183.375 380.8125 C183.83519531 379.90628906 184.29539062 379.00007813 184.76953125 378.06640625 C186.53007277 374.49820409 187.9457352 370.85550657 189.3125 367.125 C189.55162109 366.48111328 189.79074219 365.83722656 190.03710938 365.17382812 C190.5437938 363.80618124 191.04482977 362.4364321 191.54101562 361.06494141 C192.12413331 359.49004568 192.73456364 357.92511538 193.36523438 356.36865234 C196.39304625 348.66654897 197.75961384 340.97293529 199 332.8125 C199.40818343 330.2290606 199.81702677 327.64572537 200.2265625 325.0625 C200.51515137 323.21011719 200.51515137 323.21011719 200.80957031 321.3203125 C201.31540284 318.18222887 201.87257132 315.06095226 202.4609375 311.9375 C204.15549121 302.67530082 204.53107909 293.72946573 204.5 284.3125 C204.50386719 283.14074219 204.50773437 281.96898437 204.51171875 280.76171875 C204.50535157 275.08855862 204.34159328 269.55810496 203.61572266 263.93164062 C203.26930175 260.88201238 203.18696437 257.83648433 203.08374023 254.77050781 C202.73598704 244.56298853 201.43361217 234.80777416 199.375 224.8125 C198.715 224.8125 198.055 224.8125 197.375 224.8125 C197.31566284 223.90588623 197.31566284 223.90588623 197.25512695 222.98095703 C196.74019584 216.5913817 195.46531929 210.79729693 193.5625 204.6875 C193.31435547 203.84574219 193.06621094 203.00398437 192.81054688 202.13671875 C191.36067755 197.37760569 189.63850942 193.00067583 187.29052734 188.61206055 C186.00159231 186.07852984 185.06403797 183.44794877 184.1015625 180.77734375 C182.97707298 177.73638553 181.67433039 174.78239804 180.375 171.8125 C179.715 171.8125 179.055 171.8125 178.375 171.8125 C178.21281982 171.25997559 178.05063965 170.70745117 177.88354492 170.13818359 C176.11164907 164.43740643 173.78193085 159.52933147 170.6875 154.4375 C170.24470703 153.69854492 169.80191406 152.95958984 169.34570312 152.19824219 C165.67559285 146.14916115 161.68602037 140.4234082 157.375 134.8125 C156.61703125 133.78898437 155.8590625 132.76546875 155.078125 131.7109375 C149.0172493 123.58010728 142.38678083 116.13260027 135.375 108.8125 C134.70339844 108.11125 134.03179687 107.41 133.33984375 106.6875 C119.25495733 92.31385737 102.70578419 79.9488242 85.375 69.8125 C84.49457031 69.26078125 83.61414063 68.7090625 82.70703125 68.140625 C80.53263164 66.64753853 80.53263164 66.64753853 78.375 66.8125 C78.375 66.1525 78.375 65.4925 78.375 64.8125 C76.76625 64.1628125 76.76625 64.1628125 75.125 63.5 C73.00756311 62.64488126 71.41198838 61.8426049 69.6328125 60.39453125 C66.50628337 58.20379717 63.07204352 57.07090799 59.5 55.8125 C58.10559401 55.31579137 56.71234123 54.81583242 55.3203125 54.3125 C54.70687988 54.0959375 54.09344727 53.879375 53.46142578 53.65625 C51.375 52.8125 51.375 52.8125 48.50292969 51.33984375 C45.48241865 49.86495169 42.5995342 48.8345086 39.3828125 47.875 C38.26519531 47.53726563 37.14757812 47.19953125 35.99609375 46.8515625 C34.84238281 46.50867188 33.68867188 46.16578125 32.5 45.8125 C19.57352933 41.94473712 19.57352933 41.94473712 14.90625 40.1328125 C6.43633397 36.96596337 -2.63323895 36.55303636 -11.59375 36.05859375 C-14.625 35.8125 -14.625 35.8125 -16.5372467 35.30718994 C-18.77711591 34.77645637 -20.76004221 34.67195933 -23.06030273 34.65136719 C-24.36964027 34.63695587 -24.36964027 34.63695587 -25.70542908 34.62225342 C-26.64697342 34.61800354 -27.58851776 34.61375366 -28.55859375 34.609375 C-29.54634293 34.60367493 -30.5340921 34.59797485 -31.55177307 34.59210205 C-33.65242445 34.58265039 -35.75309066 34.57611741 -37.85375977 34.57226562 C-40.99198529 34.56271461 -44.12951069 34.53176031 -47.26757812 34.5 C-68.58032737 33.17579095 -68.58032737 33.17579095 -87.625 38.8125 Z " fill="#F4F4F1" transform="translate(371.625,62.1875)"/>
<path d="M0 0 C3.17462913 1.39124222 5.18902753 2.99273244 7.5390625 5.52734375 C8.19745117 6.23044678 8.85583984 6.9335498 9.53417969 7.65795898 C10.95152596 9.20323714 12.36615764 10.75100874 13.77832031 12.30102539 C18.22675124 17.21579552 18.22675124 17.21579552 23.1328125 21.65625 C32.11048611 29.4815655 32.88431803 40.1232914 33.76855469 51.39941406 C34.75744057 68.55385061 34.27934146 85.82909546 34 103 C26.63363868 96.8016782 26.63363868 96.8016782 23.44921875 93.328125 C22.84198975 92.67255615 22.23476074 92.0169873 21.60913086 91.34155273 C20.97499268 90.65134033 20.34085449 89.96112793 19.6875 89.25 C13.0247415 82.07466076 6.18565024 75.10624626 -0.79614258 68.24121094 C-4.85296382 64.23194319 -8.71360986 60.14286297 -12.39306641 55.78295898 C-14.08797407 53.90238915 -15.88898939 52.26873658 -17.8125 50.625 C-21.14597879 47.77054474 -24.38649686 44.84212311 -27.5625 41.8125 C-28.43003906 40.99394531 -29.29757812 40.17539062 -30.19140625 39.33203125 C-32 37 -32 37 -32.03515625 34.96484375 C-30.67959472 32.3918345 -28.99180061 30.74481549 -26.875 28.75 C-23.90546082 25.88383086 -21.05907462 23.01048717 -18.375 19.875 C-15.64484398 16.69191487 -12.76425616 13.7413737 -9.7734375 10.8046875 C-7.1886316 8.17433436 -4.78830219 5.39538237 -2.3828125 2.6015625 C-1.61429517 1.71147181 -0.83152881 0.83152881 0 0 Z " fill="#F4F5F2" transform="translate(511,258)"/>
<path d="M0 0 C4.05890878 0.53448018 5.91818326 2.55769145 8.73828125 5.41015625 C9.64126953 6.31830078 10.54425781 7.22644531 11.47460938 8.16210938 C11.9414917 8.6393042 12.40837402 9.11649902 12.8894043 9.6081543 C14.29038268 11.039897 15.70273306 12.46048349 17.11523438 13.88085938 C29.82020455 26.73030682 29.82020455 26.73030682 34 33 C33.6725045 36.22269774 32.51676313 37.85111248 30.24365234 40.08105469 C29.66569916 40.65555359 29.08774597 41.23005249 28.49227905 41.82196045 C27.86318634 42.43243225 27.23409363 43.04290405 26.5859375 43.671875 C25.93807281 44.31312317 25.29020813 44.95437134 24.62271118 45.61505127 C22.54711305 47.66724895 20.46166617 49.70906238 18.375 51.75 C16.31143882 53.77827424 14.25010041 55.8087334 12.19155884 57.84210205 C10.91146135 59.10549344 9.6282794 60.36577057 8.34140015 61.62225342 C4.5927815 65.30958312 1.0909192 69.1367335 -2.34417725 73.11685181 C-4.67322594 75.76565213 -7.13410979 78.2284685 -9.64453125 80.70703125 C-10.38832283 81.4451429 -10.38832283 81.4451429 -11.1471405 82.19816589 C-12.69978699 83.73879976 -14.25569898 85.27606517 -15.8125 86.8125 C-17.88441659 88.85776815 -19.95294443 90.90637956 -22.01953125 92.95703125 C-22.92807861 93.85397705 -23.83662598 94.75092285 -24.77270508 95.67504883 C-27.11804906 97.98744678 -27.11804906 97.98744678 -29 101 C-29.66 101 -30.32 101 -31 101 C-31.11055483 88.00892947 -30.88557116 75.0726901 -30.25537109 62.09619141 C-30.12340978 59.34180779 -30.0048114 56.58704052 -29.88671875 53.83203125 C-29.80288393 52.041629 -29.71827711 50.25126269 -29.6328125 48.4609375 C-29.59938751 47.65659271 -29.56596252 46.85224792 -29.53152466 46.02352905 C-29.07415538 37.13121258 -28.52790558 29.27555285 -21.8125 22.875 C-20.74038855 21.78564503 -19.66880063 20.69577464 -18.59765625 19.60546875 C-17.73551514 18.74767822 -17.73551514 18.74767822 -16.85595703 17.87255859 C-13.40420098 14.38992654 -10.09049807 10.77637261 -6.75 7.1875 C-5.45389909 5.80526333 -4.15709008 4.42369007 -2.859375 3.04296875 C-2.03131348 2.16161255 -2.03131348 2.16161255 -1.18652344 1.26245117 C-0.59919434 0.63753784 -0.59919434 0.63753784 0 0 Z " fill="#F6F6F3" transform="translate(148,259)"/>
<path d="M0 0 C0.7734375 -0.00773438 1.546875 -0.01546875 2.34375 -0.0234375 C5.02244468 0.47153869 5.91670512 1.1784925 7.5 3.375 C7.6875 7.0625 7.6875 7.0625 7.5 10.375 C3.38357426 12.37084278 0.05724828 12.79696743 -4.5 12.375 C-6.4375 11.25 -6.4375 11.25 -7.5 9.375 C-8.14242424 4.23560606 -8.14242424 4.23560606 -6.2578125 1.7109375 C-4.03747321 0.02347964 -2.76536019 -0.0276536 0 0 Z " fill="#1F201F" transform="translate(320.5,189.625)"/>
<path d="M0 0 C0.99 0.66 1.98 1.32 3 2 C2.67 3.32 2.34 4.64 2 6 C-22.255 5.505 -22.255 5.505 -47 5 C-47 4.34 -47 3.68 -47 3 C-31.49 2.67 -15.98 2.34 0 2 C0 1.34 0 0.68 0 0 Z " fill="#474747" transform="translate(444,529)"/>
<path d="M0 0 C0.66 0.66 1.32 1.32 2 2 C-7.9 11.9 -17.8 21.8 -28 32 C-28.99 31.67 -29.98 31.34 -31 31 C-20.77 20.77 -10.54 10.54 0 0 Z " fill="#323231" transform="translate(211,368)"/>
<path d="M0 0 C0.33 0.66 0.66 1.32 1 2 C0.67 2.66 0.34 3.32 0 4 C0.66 4 1.32 4 2 4 C2 4.66 2 5.32 2 6 C16.19 6 30.38 6 45 6 C45 6.33 45 6.66 45 7 C29.49 7 13.98 7 -2 7 C-1.34 4.69 -0.68 2.38 0 0 Z " fill="#DFDFDF" transform="translate(220,525)"/>
<path d="M0 0 C0.33 0.66 0.66 1.32 1 2 C0.52949219 2.51949219 0.05898437 3.03898437 -0.42578125 3.57421875 C-4.37111774 7.95016452 -4.37111774 7.95016452 -7.5625 12.875 C-9.54647236 15.80782871 -11.64586764 16.18010098 -15 17 C-10.60502098 10.67467725 -5.54949524 5.32751543 0 0 Z " fill="#D0D0CF" transform="translate(154,357)"/>
<path d="M0 0 C-1.3917114 3.31869641 -2.86645149 4.90399424 -5.8125 6.9375 C-8.38573433 8.76953096 -10.66222469 10.56083176 -12.8125 12.875 C-15 15 -15 15 -18 15 C-16.08643227 13.05935348 -14.16932062 11.122443 -12.25 9.1875 C-11.71117187 8.64029297 -11.17234375 8.09308594 -10.6171875 7.52929688 C-3.13352273 0 -3.13352273 0 0 0 Z " fill="#CBCCCB" transform="translate(186,185)"/>
<path d="M0 0 C0.33 0.99 0.66 1.98 1 3 C1.66 3 2.32 3 3 3 C3 3.66 3 4.32 3 5 C2.01 5 1.02 5 0 5 C0 5.99 0 6.98 0 8 C-2.64 8.66 -5.28 9.32 -8 10 C-5.83735988 6.01618925 -3.28788824 3.11016455 0 0 Z " fill="#CDCECC" transform="translate(132,142)"/>
<path d="M0 0 C0.66 0.33 1.32 0.66 2 1 C1.06725891 2.12894876 0.12859878 3.25300876 -0.8125 4.375 C-1.33457031 5.00148438 -1.85664063 5.62796875 -2.39453125 6.2734375 C-4.69734292 8.74994056 -6.26382047 9.96575909 -9.6875 10.125 C-10.8321875 10.063125 -10.8321875 10.063125 -12 10 C-12.33 8.02 -12.66 6.04 -13 4 C-11 6 -11 6 -11 9 C-6.50907623 6.62245212 -3.47764287 3.6393937 0 0 Z " fill="#B5B5B4" transform="translate(392,266)"/>
<path d="M0 0 C0.33 0.99 0.66 1.98 1 3 C-0.2878331 4.48250555 -1.58039064 5.96090818 -2.875 7.4375 C-3.59429687 8.26121094 -4.31359375 9.08492188 -5.0546875 9.93359375 C-7 12 -7 12 -9 13 C-9.33 13.99 -9.66 14.98 -10 16 C-10.66 16 -11.32 16 -12 16 C-11.47428335 11.95105948 -9.46350492 10.18069025 -6.5625 7.4375 C-4.00340357 5.00163453 -1.96681053 2.95021579 0 0 Z " fill="#BFBFBF" transform="translate(133,379)"/>
<path d="M0 0 C1.32 0 2.64 0 4 0 C3.71125 0.515625 3.4225 1.03125 3.125 1.5625 C1.84450737 4.14213157 1.84450737 4.14213157 1.0625 7.6875 C0.711875 8.780625 0.36125 9.87375 0 11 C-0.99 11.33 -1.98 11.66 -3 12 C-3 10.68 -3 9.36 -3 8 C-2.34 8 -1.68 8 -1 8 C-1.20625 7.236875 -1.4125 6.47375 -1.625 5.6875 C-2 3 -2 3 0 0 Z " fill="#2A2A2A" transform="translate(141,227)"/>
<path d="M0 0 C0.99 0.33 1.98 0.66 3 1 C1.56877218 2.48523642 0.12979111 3.96300462 -1.3125 5.4375 C-2.11300781 6.26121094 -2.91351563 7.08492188 -3.73828125 7.93359375 C-6 10 -6 10 -9 11 C-7.59155282 7.78475695 -5.89655214 5.67816132 -3.375 3.25 C-2.74335938 2.63640625 -2.11171875 2.0228125 -1.4609375 1.390625 C-0.73777344 0.70226562 -0.73777344 0.70226562 0 0 Z " fill="#C5C5C5" transform="translate(148,259)"/>
<path d="M0 0 C0.99 0.33 1.98 0.66 3 1 C1.576875 2.36125 1.576875 2.36125 0.125 3.75 C-2.14549867 6.00978877 -3.83296506 7.96570916 -5 11 C-5.66 9.68 -6.32 8.36 -7 7 C-4.69 4.69 -2.38 2.38 0 0 Z " fill="#323232" transform="translate(433,353)"/>
<path d="M0 0 C0.33 0.66 0.66 1.32 1 2 C-0.11799986 3.33920838 -1.24461897 4.67122556 -2.375 6 C-3.00148438 6.7425 -3.62796875 7.485 -4.2734375 8.25 C-4.84320313 8.8275 -5.41296875 9.405 -6 10 C-6.66 10 -7.32 10 -8 10 C-8 10.66 -8 11.32 -8 12 C-8.66 11.67 -9.32 11.34 -10 11 C-8.89718873 9.72799029 -7.79269231 8.45744147 -6.6875 7.1875 C-6.07261719 6.47980469 -5.45773437 5.77210938 -4.82421875 5.04296875 C-3.26665665 3.29863261 -1.67341125 1.63221959 0 0 Z " fill="#BFBFBF" transform="translate(499,271)"/>
<path d="M0 0 C1 2 1 2 0.875 3.875 C-0.37358503 6.90727793 -2.33247382 8.17827481 -5 10 C-5.66 10 -6.32 10 -7 10 C-7 10.66 -7 11.32 -7 12 C-7.66 11.67 -8.32 11.34 -9 11 C-6.03 7.37 -3.06 3.74 0 0 Z " fill="#C9C9C8" transform="translate(164,345)"/>
<path d="M0 0 C0.66 0.33 1.32 0.66 2 1 C0.92492371 2.29854721 -0.16043736 3.58858361 -1.25 4.875 C-1.85328125 5.59429687 -2.4565625 6.31359375 -3.078125 7.0546875 C-4.97087634 8.97052118 -6.53657727 9.96449045 -9 11 C-6.36113346 6.7973607 -3.63559661 3.43361902 0 0 Z " fill="#B7B7B7" transform="translate(511,258)"/>
<path d="M0 0 C0 3.77910478 -0.99703962 4.46106101 -3.5 7.1875 C-4.1496875 7.90292969 -4.799375 8.61835938 -5.46875 9.35546875 C-5.9740625 9.89816406 -6.479375 10.44085938 -7 11 C-7.99 10.67 -8.98 10.34 -10 10 C-6.7 6.7 -3.4 3.4 0 0 Z " fill="#444444" transform="translate(511,247)"/>
<path d="M0 0 C-5.32886161 4.44071801 -8.07911053 5.60709557 -15 5 C-12.30932731 3.20621821 -9.91421743 2.02686042 -6.9375 0.8125 C-5.62072266 0.26529297 -5.62072266 0.26529297 -4.27734375 -0.29296875 C-2 -1 -2 -1 0 0 Z " fill="#A3A3A2" transform="translate(238,76)"/>
<path d="M0 0 C0.66 0.33 1.32 0.66 2 1 C2 1.66 2 2.32 2 3 C0.25 4.7265625 0.25 4.7265625 -2 6.625 C-2.7425 7.25664062 -3.485 7.88828125 -4.25 8.5390625 C-4.8275 9.02117187 -5.405 9.50328125 -6 10 C-6.66 9.67 -7.32 9.34 -8 9 C-6.85459775 7.68712379 -5.70866567 6.37470979 -4.5625 5.0625 C-3.92441406 4.33160156 -3.28632813 3.60070312 -2.62890625 2.84765625 C-1.77458541 1.87860647 -0.91348825 0.91348825 0 0 Z " fill="#CFCFCF" transform="translate(200,305)"/>
<path d="M0 0 C0.33 0.99 0.66 1.98 1 3 C-3.455 6.96 -3.455 6.96 -8 11 C-8.66 10.67 -9.32 10.34 -10 10 C-6.7 6.7 -3.4 3.4 0 0 Z " fill="#C0C0BF" transform="translate(504,516)"/>
<path d="M0 0 C0.33 0.99 0.66 1.98 1 3 C-3.455 6.96 -3.455 6.96 -8 11 C-8.66 10.67 -9.32 10.34 -10 10 C-6.7 6.7 -3.4 3.4 0 0 Z " fill="#4F4F4F" transform="translate(179,400)"/>
<path d="M0 0 C0 4.22023957 -1.85196466 6.668279 -4.5625 9.8125 C-6 11 -6 11 -8 11 C-6.63629701 8.00779732 -5.05091917 5.70973471 -2.875 3.25 C-2.33617187 2.63640625 -1.79734375 2.0228125 -1.2421875 1.390625 C-0.62730469 0.70226562 -0.62730469 0.70226562 0 0 Z " fill="#BABAB9" transform="translate(526,491)"/>
<path d="M0 0 C1.125 1.75 1.125 1.75 2 4 C1.17133982 6.8174446 0.41463847 7.75609502 -2.125 9.25 C-2.74375 9.4975 -3.3625 9.745 -4 10 C-2.8905928 6.51329166 -1.73662334 3.22515763 0 0 Z " fill="#B8B8B7" transform="translate(264,440)"/>
<path d="M0 0 C0.66 0.66 1.32 1.32 2 2 C-0.31 4.64 -2.62 7.28 -5 10 C-5.66 9.67 -6.32 9.34 -7 9 C-4.69 6.03 -2.38 3.06 0 0 Z " fill="#CACACA" transform="translate(213,392)"/>
<path d="M0 0 C0.33 0 0.66 0 1 0 C1.33 2.97 1.66 5.94 2 9 C0.02 9.99 0.02 9.99 -2 11 C-1.125 3.375 -1.125 3.375 0 0 Z " fill="#BFC0BD" transform="translate(59,269)"/>
<path d="M0 0 C0.66 0.33 1.32 0.66 2 1 C-0.31 3.64 -2.62 6.28 -5 9 C-5.99 8.67 -6.98 8.34 -8 8 C-5.36 5.36 -2.72 2.72 0 0 Z " fill="#D0D0CF" transform="translate(467,197)"/>
<path d="M0 0 C0 3.54404336 -0.60989485 4.10267905 -2.875 6.6875 C-3.40867187 7.31011719 -3.94234375 7.93273437 -4.4921875 8.57421875 C-6 10 -6 10 -8 10 C-6.34908222 5.70761377 -3.26245434 3.1206085 0 0 Z " fill="#3D3D3C" transform="translate(492,267)"/>
<path d="M0 0 C0.66 0.33 1.32 0.66 2 1 C-0.97 4.96 -0.97 4.96 -4 9 C-5.32 8.67 -6.64 8.34 -8 8 C-5.36 5.36 -2.72 2.72 0 0 Z " fill="#3A3A39" transform="translate(172,155)"/>
<path d="M0 0 C0.66 1.32 1.32 2.64 2 4 C1.01 3.67 0.02 3.34 -1 3 C-1.12375 3.61875 -1.2475 4.2375 -1.375 4.875 C-2 7 -2 7 -4 9 C-4.99 8.67 -5.98 8.34 -7 8 C-4.69 5.36 -2.38 2.72 0 0 Z " fill="#C7C7C6" transform="translate(121,154)"/>
<path d="M0 0 C0 3.86695678 -1.41909971 6.5088452 -3 10 C-4.4606285 7.35261084 -5 6.10551666 -5 3 C-2.5 1.3125 -2.5 1.3125 0 0 Z " fill="#C0C0BF" transform="translate(591,450)"/>
<path d="M0 0 C0.99 0.33 1.98 0.66 3 1 C2.67 2.98 2.34 4.96 2 7 C0.02 5.35 -1.96 3.7 -4 2 C-3.34 1.67 -2.68 1.34 -2 1 C-1.34 1.33 -0.68 1.66 0 2 C0 1.34 0 0.68 0 0 Z " fill="#E0E0DF" transform="translate(471,383)"/>
<path d="M0 0 C0.33 0.99 0.66 1.98 1 3 C-0.52994792 4.23697917 -2.05989583 5.47395833 -3.58984375 6.7109375 C-5.13266437 7.9666391 -5.13266437 7.9666391 -6 10 C-6.66 9.67 -7.32 9.34 -8 9 C-6.85459775 7.68712379 -5.70866567 6.37470979 -4.5625 5.0625 C-3.92441406 4.33160156 -3.28632813 3.60070312 -2.62890625 2.84765625 C-1.77458541 1.87860647 -0.91348825 0.91348825 0 0 Z " fill="#494949" transform="translate(157,319)"/>
<path d="M0 0 C2.50037734 2.17424117 3.43628586 3.73045798 4 7 C3.34 7 2.68 7 2 7 C1.34 6.34 0.68 5.68 0 5 C-0.99 5.495 -0.99 5.495 -2 6 C-2.33 4.68 -2.66 3.36 -3 2 C-2.34 2 -1.68 2 -1 2 C-0.67 1.34 -0.34 0.68 0 0 Z " fill="#C7C7C6" transform="translate(572,197)"/>
<path d="M0 0 C-1.44390925 3.80666984 -3.34952803 5.26602582 -7 7 C-7.66 6.67 -8.32 6.34 -9 6 C-7.8803014 4.99406757 -6.7540588 3.9954151 -5.625 3 C-4.68527344 2.1646875 -4.68527344 2.1646875 -3.7265625 1.3125 C-2 0 -2 0 0 0 Z " fill="#414141" transform="translate(510,562)"/>
<path d="M0 0 C0.33 0.66 0.66 1.32 1 2 C-0.73397418 5.65047197 -2.19333016 7.55609075 -6 9 C-4.47291037 5.56404834 -2.40072955 2.88087546 0 0 Z " fill="#BCBCBC" transform="translate(190,422)"/>
<path d="M0 0 C0.99 0.33 1.98 0.66 3 1 C-1.625 6.875 -1.625 6.875 -5 8 C-3.62845496 5.04590299 -2.01136276 2.55991624 0 0 Z " fill="#4A4A4A" transform="translate(269,401)"/>
<path d="M0 0 C0.66 0.99 1.32 1.98 2 3 C-0.97 5.475 -0.97 5.475 -4 8 C-4 4.09161134 -2.49432124 2.88405893 0 0 Z " fill="#C0C0BF" transform="translate(155,214)"/>
<path d="M0 0 C2.125 0.375 2.125 0.375 4 1 C2.35 2.65 0.7 4.3 -1 6 C-1.625 4.125 -1.625 4.125 -2 2 C-1.34 1.34 -0.68 0.68 0 0 Z " fill="#191919" transform="translate(204,399)"/>
<path d="M0 0 C0.33 0.66 0.66 1.32 1 2 C-1.47812494 5.45167403 -2.79606135 7.23163306 -7 8 C-6.02133662 6.85373678 -5.04205413 5.70800212 -4.0625 4.5625 C-3.51722656 3.92441406 -2.97195312 3.28632813 -2.41015625 2.62890625 C-1.63204305 1.73008851 -0.84063472 0.84063472 0 0 Z " fill="#414141" transform="translate(132,345)"/>
<path d="M0 0 C-0.39803561 2.88575819 -0.79009069 3.82189513 -3.0625 5.75 C-3.701875 6.1625 -4.34125 6.575 -5 7 C-5.33 6.34 -5.66 5.68 -6 5 C-5.34 5 -4.68 5 -4 5 C-4 3.68 -4 2.36 -4 1 C-2 0 -2 0 0 0 Z " fill="#3B3B3B" transform="translate(137,248)"/>
<path d="M0 0 C0 3.13751221 -0.35179805 4.39757586 -2 7 C-2.99 7.33 -3.98 7.66 -5 8 C-3.8141763 4.62496331 -2.72426311 2.35277269 0 0 Z " fill="#474746" transform="translate(260,413)"/>
<path d="M0 0 C0.33 0.66 0.66 1.32 1 2 C0.06421005 4.35981813 -0.93347808 6.69631264 -2 9 C-2.66 9 -3.32 9 -4 9 C-2.94124926 5.59687262 -1.99097846 2.98646769 0 0 Z " fill="#4E4E4E" transform="translate(366,490)"/>
<path d="M0 0 C0.33 0 0.66 0 1 0 C1 1.65 1 3.3 1 5 C-0.65 5.66 -2.3 6.32 -4 7 C-2.79618552 4.50638429 -1.54571278 2.31856917 0 0 Z " fill="#BFBFBF" transform="translate(181,433)"/>
<path d="M0 0 C0.33 0.99 0.66 1.98 1 3 C-0.65 4.65 -2.3 6.3 -4 8 C-4.66 7.67 -5.32 7.34 -6 7 C-4.02 4.69 -2.04 2.38 0 0 Z " fill="#B4B4B4" transform="translate(130,278)"/>
<path d="M0 0 C2 3 2 3 2 5 C0.35 5.66 -1.3 6.32 -3 7 C-1.125 2.25 -1.125 2.25 0 0 Z " fill="#BFBFBF" transform="translate(88,199)"/>
<path d="M0 0 C-1.15173355 2.46800047 -2.04783565 4.04783565 -4 6 C-4.99 5.67 -5.98 5.34 -7 5 C-2.25 0 -2.25 0 0 0 Z " fill="#414040" transform="translate(164,164)"/>
<path d="M0 0 C0.99 0.66 1.98 1.32 3 2 C1.02 3.32 -0.96 4.64 -3 6 C-3 3 -3 3 -1.5 1.3125 C-0.7575 0.6628125 -0.7575 0.6628125 0 0 Z " fill="#E3E3E1" transform="translate(173,151)"/>
</svg>
